#!OML:ASF H:\ManfredETheater\Project 1\Capture day 1\Session 1\subject.ASF
:FULLY-SPECIFIED
:DEGREES
107
root -11.4818 15.6645 9.09325 -4.38432 -45.3371 5.8713
lowerback 19.6497 -0.581331 -2.12183
upperback 2.85624 -1.23915 0.633372
thorax -7.84241 -0.56291 2.22051
lowerneck -16.0982 -1.46797 -4.15701
upperneck 10.6621 -1.23982 1.33922
head 5.88982 -0.670199 0.977873
rclavicle -3.12092e-014 1.11319e-014
rhumerus -59.7464 -0.971892 -86.9329
rradius 82.6309
rwrist -17.091
rhand -31.7785 8.47738
rfingers 7.12502
rthumb -5.03486 -21.4428
lclavicle -3.12092e-014 1.11319e-014
lhumerus -47.1298 -10.6783 101.84
lradius 106.766
lwrist 11.847
lhand -18.1333 -10.8403
lfingers 7.12502
lthumb 8.14172 18.9829
rfemur -45.3383 -7.75907 31.6202
rtibia 59.506
rfoot -10.5807 -12.1598
rtoes 5.60241
lfemur -20.3966 -4.81935 -10.1321
ltibia 96.1622
lfoot -7.85343 -1.97021
ltoes -0.916878
108
root -11.8379 15.608 9.50928 -3.55334 -45.51 3.96618
lowerback 20.1119 -0.496265 -1.18145
upperback 2.96709 -0.900506 1.08148
thorax -7.99545 -0.422067 2.09022
lowerneck -16.2164 -1.59629 -4.11139
upperneck 10.745 -1.40991 1.28567
head 5.93974 -0.755468 0.936311
rclavicle 1.59028e-014 -2.70347e-014
rhumerus -57.3843 -0.81595 -87.4305
rradius 81.5424
rwrist -17.4189
rhand -31.9198 8.08748
rfingers 7.12502
rthumb -5.17131 -21.8294
lclavicle 1.59028e-014 -2.70347e-014
lhumerus -47.3287 -9.80127 101.377
lradius 103.846
lwrist 12.924
lhand -18.4522 -10.8338
lfingers 7.12502
lthumb 7.83391 19.0011
rfemur -43.6908 -7.11563 32.5856
rtibia 61.8582
rfoot -13.1352 -13.9352
rtoes 3.18789
lfemur -24.0799 -3.85689 -7.92602
ltibia 98.0788
lfoot -9.48351 -2.39804
ltoes -1.51503
109
root -12.1908 15.5576 9.92487 -2.86867 -45.4505 2.39732
lowerback 20.4394 -0.4695 -0.442253
upperback 3.07188 -0.67817 1.46899
thorax -8.07054 -0.333623 2.03497
lowerneck -16.358 -1.72115 -4.08828
upperneck 10.861 -1.57011 1.23758
head 6.00388 -0.836618 0.900644
rclavicle 5.04913e-014 -3.57812e-014
rhumerus -55.1097 -0.45362 -87.9415
rradius 80.6698
rwrist -17.4028
rhand -32.0876 7.77471
rfingers 7.12502
rthumb -5.33335 -22.1382
lclavicle 5.04913e-014 -3.57812e-014
lhumerus -47.5458 -9.04069 100.876
lradius 101.063
lwrist 13.4795
lhand -18.7378 -10.8723
lfingers 7.12502
lthumb 7.55822 18.9726
rfemur -41.9596 -6.80908 33.3207
rtibia 63.8882
rfoot -15.6702 -15.5522
rtoes 0.113669
lfemur -27.9812 -3.13345 -6.26937
ltibia 99.4063
lfoot -10.8766 -2.61979
ltoes -2.31884
110
root -12.5429 15.517 10.3396 -2.35721 -45.1629 1.20119
lowerback 20.6334 -0.492303 0.0707213
upperback 3.15178 -0.570597 1.79788
thorax -8.09288 -0.294422 2.0733
lowerneck -16.4905 -1.84157 -4.08488
upperneck 11.0108 -1.72007 1.18744
head 6.07716 -0.914111 0.868176
rclavicle 2.5842e-015 1.43125e-014
rhumerus -53.0532 0.128247 -88.4538
rradius 80.1764
rwrist -17.0751
rhand -32.239 7.59227
rfingers 7.12502
rthumb -5.47949 -22.3169
lclavicle 2.5842e-015 1.43125e-014
lhumerus -47.8605 -8.4747 100.414
lradius 98.5391
lwrist 13.3441
lhand -19.1318 -11.0525
lfingers 7.12502
lthumb 7.17789 18.8057
rfemur -40.1592 -6.84313 33.8055
rtibia 65.5942
rfoot -18.0943 -17.0386
rtoes -3.28554
lfemur -32.0333 -2.70391 -5.19348
ltibia 100.069
lfoot -11.9365 -2.67302
ltoes -3.16381
111
root -12.8958 15.4877 10.7534 -2.01564 -44.6503 0.356785
lowerback 20.7188 -0.561599 0.37431
upperback 3.1909 -0.571787 2.07472
thorax -8.09587 -0.301125 2.20271
lowerneck -16.5915 -1.9624 -4.09512
upperneck 11.1974 -1.86751 1.12762
head 6.15704 -0.992201 0.834852
rclavicle 5.76476e-014 -2.94201e-014
rhumerus -51.3141 0.93001 -88.955
rradius 80.1783
rwrist -16.5128
rhand -32.3289 7.60014
rfingers 7.12502
rthumb -5.56626 -22.3068
lclavicle 5.76476e-014 -2.94201e-014
lhumerus -48.3301 -8.13866 100.013
lradius 96.4112
lwrist 12.3894
lhand -19.4381 -11.3335
lfingers 7.12502
lthumb 6.88223 18.5346
rfemur -38.2962 -7.19166 34.047
rtibia 66.995
rfoot -20.3219 -18.4077
rtoes -6.75831
lfemur -36.133 -2.61697 -4.65695
ltibia 100.005
lfoot -12.598 -2.61938
ltoes -4.06959
112
root -13.2501 15.4703 11.166 -1.8099 -44.004 -0.191124
lowerback 20.7236 -0.645313 0.504343
upperback 3.18028 -0.632435 2.30048
thorax -8.10687 -0.330824 2.39127
lowerneck -16.6535 -2.08837 -4.11461
upperneck 11.4209 -2.02156 1.06771
head 6.24267 -1.07437 0.802164
rclavicle 6.30147e-014 -1.59028e-015
rhumerus -49.9548 1.93189 -89.4463
rradius 80.7477
rwrist -15.8197
rhand -32.3505 7.80192
rfingers 7.12502
rthumb -5.5871 -22.1044
lclavicle 6.30147e-014 -1.59028e-015
lhumerus -49.0078 -8.10593 99.7294
lradius 94.8188
lwrist 10.9539
lhand -19.7428 -11.6965
lfingers 7.12502
lthumb 6.58812 18.181
rfemur -36.3826 -7.75841 34.0851
rtibia 68.1189
rfoot -22.2664 -19.6561
rtoes -10.4619
lfemur -40.1351 -2.82083 -4.56374
ltibia 99.1711
lfoot -12.8401 -2.56771
ltoes -5.03042
113
root -13.6074 15.4679 11.579 -1.64884 -43.2744 -0.588094
lowerback 20.6527 -0.740064 0.588494
upperback 3.12838 -0.720159 2.48429
thorax -8.12111 -0.371774 2.56677
lowerneck -16.6932 -2.22891 -4.13808
upperneck 11.6809 -2.19706 1.01842
head 6.33708 -1.1666 0.771046
rclavicle -2.04748e-014 -3.18055e-015
rhumerus -48.9875 3.08205 -89.9239
rradius 81.8904
rwrist -15.0961
rhand -32.2674 8.20595
rfingers 7.12502
rthumb -5.50689 -21.7025
lclavicle -2.04748e-014 -3.18055e-015
lhumerus -49.8985 -8.38266 99.552
lradius 93.8462
lwrist 9.30135
lhand -19.8789 -12.0797
lfingers 7.12502
lthumb 6.45677 17.8019
rfemur -34.4046 -8.45345 34.0141
rtibia 68.9847
rfoot -23.8422 -20.7626
rtoes -14.2611
lfemur -43.885 -3.29261 -4.73469
ltibia 97.5269
lfoot -12.6605 -2.63667
ltoes -6.02995
